<svg width="100" height="100" viewBox="0 0 100 100" fill="none" xmlns="http://www.w3.org/2000/svg">
<path fill-rule="evenodd" clip-rule="evenodd" d="M49.5215 63.1627C69.0766 53.5455 81.2584 56.7512 90.8756 64.445C83.5024 47.7751 64.5885 45.8517 47.9187 56.4306C33.4928 66.0478 18.4258 73.4211 4 65.0861C14.8995 76.6268 31.5694 72.1388 49.5215 63.1627ZM55.6124 78.5502C77.4115 71.177 86.7081 76.6268 96.3254 84C90.8756 65.4067 71.3206 60.9187 52.4067 69.8947C35.7368 77.5885 19.067 83.3589 4.96172 72.4593C14.8995 86.244 35.4163 85.6029 55.6124 78.5502ZM54.9713 17C60.4211 17 65.2297 21.488 65.2297 26.9378C65.2297 30.4641 61.0622 31.1053 60.4211 27.5789C59.7799 19.5646 49.5215 21.1675 49.5215 27.5789V51.622C47.9187 52.5837 46.6364 53.5455 45.0335 54.1866V39.1196H27.4019V62.8421C25.799 63.4833 24.5167 63.8038 22.9139 64.1244V26.9378C22.9139 13.7943 42.7895 13.7943 43.11 26.9378C43.11 30.4641 38.9426 31.1053 38.3014 27.5789C37.6603 19.5646 27.4019 21.1675 27.4019 27.5789V34.6316H45.0335C45.0335 28.8612 43.7512 17 54.9713 17Z" fill="#ED202D"/>
</svg>
