<svg width="100" height="100" viewBox="0 0 100 100" fill="none" xmlns="http://www.w3.org/2000/svg">
<path d="M33.3553 61.3448H37.4719C38.1023 59.2314 38.4832 57.0597 38.6096 54.8621H32.2192C32.344 57.0597 32.7249 59.2314 33.3553 61.3448Z" fill="#ED202D"/>
<path d="M59.7241 67.8276V74.3104V97.0001H85.6552V72.6897H79.1724V69.4483H85.6552V41.8966H59.7241V67.8276Z" fill="#ED202D"/>
<path d="M56.4827 69.4482H14.3447V72.6896H56.4827V69.4482Z" fill="#ED202D"/>
<path d="M43.5173 54.8621H41.8318C41.7767 55.9495 41.6811 57.0305 41.5142 58.1034H43.5173C44.4103 58.1034 45.138 57.3774 45.138 56.4828C45.138 55.5881 44.4103 54.8621 43.5173 54.8621Z" fill="#ED202D"/>
<path d="M7.8623 25.5438V97H11.1037V74.3104V67.8276V25.5438C10.5753 25.633 10.0356 25.6897 9.48299 25.6897C8.93034 25.6897 8.39065 25.633 7.8623 25.5438Z" fill="#ED202D"/>
<path d="M15.9655 9.48279H3V15.9655C3 19.5408 5.90752 22.4483 9.48276 22.4483C13.058 22.4483 15.9655 19.5408 15.9655 15.9655V9.48279Z" fill="#ED202D"/>
<path d="M14.3447 97H20.8275V82.4138H17.5861V79.1724H27.3102V82.4138H24.0689V97H33.793V82.4138H30.5516V79.1724H40.2758V82.4138H37.0344V97H46.7585V82.4138H43.5171V79.1724H53.2413V82.4138H49.9999V97H56.4827V75.931H14.3447V97Z" fill="#ED202D"/>
<path d="M48.3791 15.9655V9.48279H35.4136V15.9655C35.4136 19.5408 38.3211 22.4483 41.8963 22.4483C45.4716 22.4483 48.3791 19.5408 48.3791 15.9655Z" fill="#ED202D"/>
<path d="M64.5861 15.9655V9.48279H51.6206V15.9655C51.6206 19.5408 54.5281 22.4483 58.1034 22.4483C61.6786 22.4483 64.5861 19.5408 64.5861 15.9655Z" fill="#ED202D"/>
<path d="M80.7932 15.9655V9.48279H67.8276V15.9655C67.8276 19.5408 70.7352 22.4483 74.3104 22.4483C77.8856 22.4483 80.7932 19.5408 80.7932 15.9655Z" fill="#ED202D"/>
<path d="M88.8965 25.5438V97H92.1379V25.5438C91.6095 25.633 91.0698 25.6897 90.5172 25.6897C89.9645 25.6897 89.4248 25.633 88.8965 25.5438Z" fill="#ED202D"/>
<path d="M97 3H3V6.24138H97V3Z" fill="#ED202D"/>
<path d="M84.0347 15.9655C84.0347 19.5408 86.9422 22.4483 90.5174 22.4483C94.0927 22.4483 97.0002 19.5408 97.0002 15.9655V9.48279H84.0347V15.9655Z" fill="#ED202D"/>
<path d="M82.4137 21.3301C80.6698 23.9556 77.691 25.6897 74.3102 25.6897C70.9295 25.6897 67.9507 23.954 66.2068 21.3301C64.4629 23.9556 61.4841 25.6897 58.1033 25.6897C54.7226 25.6897 51.7438 23.954 49.9999 21.3301C48.256 23.9556 45.2772 25.6897 41.8965 25.6897C38.5157 25.6897 35.5369 23.954 33.793 21.3301C32.0491 23.9556 29.0703 25.6897 25.6896 25.6897C22.3088 25.6897 19.33 23.954 17.5861 21.3301C16.7563 22.5796 15.6445 23.6201 14.3447 24.3754V66.207H56.4827V40.2759C56.4827 39.3813 57.2087 38.6553 58.1033 38.6553H85.6551V24.3737C84.3553 23.6201 83.2435 22.578 82.4137 21.3301ZM37.0344 38.6553H40.2758V43.5173C40.2758 44.4119 39.5497 45.138 38.6551 45.138H37.0344V48.3794H33.793V43.5173C33.793 42.6227 34.5191 41.8966 35.4137 41.8966H37.0344V38.6553ZM28.9309 38.6553C28.9309 37.7606 29.657 37.0346 30.5516 37.0346H32.1723V33.7932H35.4137V38.6553C35.4137 39.5499 34.6876 40.2759 33.793 40.2759H32.1723V43.5173H28.9309V38.6553ZM43.5171 61.3449H40.8203C40.6518 61.9754 40.4832 62.6074 40.2758 63.2281L40.1931 63.4761C39.9727 64.1406 39.3536 64.5863 38.6551 64.5863H32.1723C31.4738 64.5863 30.8547 64.1406 30.6343 63.4761L30.5516 63.2265C29.4771 60.003 28.9309 56.6433 28.9309 53.2415C28.9309 52.3452 29.657 51.6208 30.5516 51.6208H40.2758H43.5171C46.1978 51.6208 48.3792 53.8022 48.3792 56.4828C48.3792 59.1635 46.1978 61.3449 43.5171 61.3449Z" fill="#ED202D"/>
<path d="M32.1725 15.9655V9.48279H19.207V15.9655C19.207 19.5408 22.1145 22.4483 25.6898 22.4483C29.265 22.4483 32.1725 19.5408 32.1725 15.9655Z" fill="#ED202D"/>
</svg>
