<svg width="100" height="100" viewBox="0 0 100 100" fill="none" xmlns="http://www.w3.org/2000/svg">
<path d="M48.105 21.964C48.105 31.011 40.771 38.345 31.724 38.345C22.678 38.345 15.343 31.012 15.343 21.964C15.343 12.917 22.677 5.583 31.724 5.583C40.771 5.583 48.105 12.917 48.105 21.964ZM40.221 77.524L35.656 70.51L38.034 70.48L32.942 61.033L28.185 70.381L30.706 70.447L25.807 77.524L28.578 77.512L25.443 82.841H40.32L37.281 77.524H40.221ZM88.57 53.939V57.279C88.57 60.946 85.598 63.914 81.932 63.914H73.571V98.689H69.671V63.913H51.445V98.688H12V59.737C12 52.873 17.572 47.305 24.436 47.305H38.189C38.248 47.301 38.302 47.301 38.361 47.301H69.671V36.728C68.451 36.034 66.729 35.252 64.731 34.91C60.743 34.216 59.877 34.91 59.877 34.91C59.877 34.91 59.877 26.24 59.877 16.354C59.877 6.472 71.619 1 71.619 1C71.619 1 83.366 6.471 83.366 16.354C83.366 26.24 83.366 34.91 83.366 34.91C83.366 34.91 82.5 34.216 78.512 34.91C76.514 35.253 74.791 36.035 73.571 36.728V47.3H81.932C85.598 47.3 88.57 50.273 88.57 53.939ZM40.935 78.854L44.221 78.708L39.079 71.317H41.286L36.416 64.068H38.134L33.222 57.647H32.666L27.754 64.068H29.422L24.602 71.317L27.332 71.367L21.668 78.708L25.045 78.758L21.668 84.619H31.659V89.94H26.713L29.238 93.288H37.369L39.844 89.94H34.317V84.619H44.22L40.935 78.854Z" fill="#ED202D"/>
</svg>
