<svg width="100" height="100" viewBox="0 0 100 100" fill="none" xmlns="http://www.w3.org/2000/svg">
<path d="M63.6717 47.2354C63.8726 47.2354 64.0735 47.2354 64.2744 47.2354V19.6117C64.2744 18.1049 63.069 17 61.6627 17H5.61169C4.10495 17 3 18.2054 3 19.6117V76.0645C3 77.5712 4.2054 78.6762 5.61169 78.6762H50.3118V65.015C50.3118 62.3028 51.7181 59.8921 53.8276 58.5862C53.7271 58.084 53.7271 57.5817 53.7271 57.0795C53.7271 51.6552 58.2474 47.2354 63.6717 47.2354ZM22.2864 22.2234H31.0255V29.5562H22.2864V22.2234ZM43.0795 46.2309C44.2849 46.934 44.2849 48.7421 43.0795 49.4453L29.1169 58.1844C27.8111 58.988 26.2039 58.084 26.2039 56.5772V39.099C26.2039 37.5922 27.8111 36.6882 29.1169 37.4918L43.0795 46.2309ZM16.9625 73.4528H8.32384V66.1199H17.063V73.4528H16.9625ZM16.9625 29.5562H8.32384V22.2234H17.063V29.5562H16.9625ZM31.0255 73.4528H22.2864V66.1199H31.0255V73.4528ZM44.988 73.4528H36.2489V66.1199H44.988V73.4528ZM44.988 29.5562H36.2489V22.2234H44.988V29.5562ZM50.3118 29.5562V22.2234H59.051V29.5562H50.3118Z" fill="#ED202D"/>
<path d="M81.9536 61.8006H79.3419C80.8486 60.7961 81.7527 59.0884 81.7527 57.1799C81.7527 54.0659 79.2414 51.5547 76.1275 51.5547C73.0135 51.5547 70.5023 54.0659 70.5023 57.1799C70.5023 59.0884 71.5068 60.7961 72.9131 61.8006H66.7856C68.2924 60.7961 69.1964 59.0884 69.1964 57.1799C69.1964 54.0659 66.6852 51.5547 63.5712 51.5547C60.4573 51.5547 57.9461 54.0659 57.9461 57.1799C57.9461 59.0884 58.9506 60.7961 60.3568 61.8006H57.7452C55.9371 61.8006 54.5308 63.2069 54.5308 65.015V80.7856C54.5308 82.5937 55.9371 84 57.7452 84H81.9536C83.7616 84 85.168 82.5937 85.168 80.7856V65.015C85.168 63.2069 83.7616 61.8006 81.9536 61.8006Z" fill="#ED202D"/>
<path d="M96.7197 65.718L88.3823 68.6311V76.9684L96.7197 79.8814C97.5233 80.1828 98.4273 79.5801 98.4273 78.676V66.9234C98.4273 66.1198 97.5233 65.5171 96.7197 65.718Z" fill="#ED202D"/>
</svg>
