<svg width="100" height="100" viewBox="0 0 100 100" fill="none" xmlns="http://www.w3.org/2000/svg">
<path d="M96.3997 94.8H93.1997V91.6H61.1998V94.8H57.9998V91.6H8.39998V94.8H3.6C2.71634 94.8 2 95.5164 2 96.4C2 97.2837 2.71634 98 3.6 98H96.3997C97.2834 98 97.9997 97.2837 97.9997 96.4C97.9997 95.5164 97.2834 94.8 96.3997 94.8Z" fill="#ED202D"/>
<path d="M58 88.4001H89.9999V56.4001H58V88.4001ZM77.1999 67.6001C77.1999 64.9492 79.349 62.8001 81.9999 62.8001C84.6509 62.8001 86.7999 64.9492 86.7999 67.6001V77.2001C86.7974 78.0827 86.0825 78.7975 85.1999 78.8001H78.7999C77.9173 78.7975 77.2025 78.0827 77.1999 77.2001V67.6001ZM61.2 67.6001C61.2 64.9492 63.349 62.8001 66 62.8001C68.6509 62.8001 70.8 64.9492 70.8 67.6001V77.2001C70.7974 78.0827 70.0826 78.7975 69.2 78.8001H62.8C61.9174 78.7975 61.2025 78.0827 61.2 77.2001V67.6001Z" fill="#ED202D"/>
<path d="M32.3997 38.8002C34.167 38.8002 35.5997 37.3675 35.5997 35.6002C35.5997 33.8329 34.167 32.4002 32.3997 32.4002C30.6324 32.4002 29.1997 33.8329 29.1997 35.6002C29.1997 37.3675 30.6324 38.8002 32.3997 38.8002Z" fill="#ED202D"/>
<path d="M37.1523 21.2002L61.8561 45.2001H92.4642L70.8003 24.1602V12.4839C72.2796 12.9443 73.8182 13.1864 75.3674 13.2026C77.4688 13.2419 79.5333 12.6479 81.2924 11.4978C81.7337 11.1929 81.9892 10.6842 81.9703 10.1481C81.9828 10.0994 81.9927 10.05 82.0002 10.0002V3.60027C82.0001 3.00922 81.6743 2.46634 81.1528 2.18824C80.6312 1.91015 79.9989 1.9421 79.508 2.27136C75.5627 4.92449 69.9721 2.19715 69.919 2.17136C69.4231 1.92161 68.8332 1.9469 68.3605 2.23818C67.8879 2.52946 67.6001 3.04505 67.6003 3.60027V21.2002H37.1523ZM78.8002 6.12682V9.24801C76.2182 10.2517 73.3453 10.2011 70.8003 9.10699V5.91901C73.3879 6.77661 76.1715 6.84892 78.8002 6.12682Z" fill="#ED202D"/>
<path d="M67.5999 67.6001C67.5999 66.7165 66.8836 66.0001 65.9999 66.0001C65.1162 66.0001 64.3999 66.7165 64.3999 67.6001V75.6001H67.5999V67.6001Z" fill="#ED202D"/>
<path d="M57.2636 45.2001L35.5997 24.1602V12.4839C37.079 12.9443 38.6176 13.1864 40.1668 13.2026C42.2682 13.2419 44.3327 12.6479 46.0918 11.4978C46.5331 11.1929 46.7886 10.6842 46.7697 10.1481C46.7822 10.0994 46.7922 10.05 46.7996 10.0002V3.60027C46.7995 3.00922 46.4737 2.46634 45.9522 2.18824C45.4306 1.91015 44.7983 1.9421 44.3075 2.27136C40.3606 4.92449 34.7731 2.19715 34.7184 2.17136C34.2226 1.92161 33.6326 1.9469 33.16 2.23818C32.6873 2.52946 32.3995 3.04505 32.3997 3.60027V22.6082L9.13574 45.2001H57.2636ZM43.5996 6.12682V9.24791C41.0177 10.2518 38.1447 10.2013 35.5997 9.10711V5.91901C38.1873 6.77657 40.971 6.84888 43.5996 6.12682ZM32.3997 29.2002C35.9343 29.2002 38.7997 32.0656 38.7997 35.6002C38.7997 39.1348 35.9343 42.0002 32.3997 42.0002C28.8651 42.0002 25.9997 39.1348 25.9997 35.6002C25.9992 33.9027 26.6734 32.2745 27.8737 31.0742C29.074 29.8739 30.7022 29.1997 32.3997 29.2002Z" fill="#ED202D"/>
<path d="M89.9999 48.4001H58V53.2001H89.9999V48.4001Z" fill="#ED202D"/>
<path d="M83.5999 67.6001C83.5999 66.7165 82.8836 66.0001 81.9999 66.0001C81.1162 66.0001 80.3999 66.7165 80.3999 67.6001V75.6001H83.5999V67.6001Z" fill="#ED202D"/>
<path d="M24.4 85.2001H18V88.4001H24.4V85.2001Z" fill="#ED202D"/>
<path d="M22.8001 62.8001H19.6001V82.0001H22.8001V62.8001Z" fill="#ED202D"/>
<path d="M24.4 56.4001H18V59.6001H24.4V56.4001Z" fill="#ED202D"/>
<path d="M54.8 88.4001V56.4001H51.6V59.6001C51.593 60.7364 50.984 61.7839 50 62.3521V82.4481C50.984 83.0164 51.5929 84.0638 51.6 85.2001V88.4001H54.8Z" fill="#ED202D"/>
<path d="M11.6001 56.4001V88.4001H14.8001V85.2001C14.8072 84.0638 15.4161 83.0164 16.4001 82.4481V62.3521C15.4161 61.7839 14.8071 60.7364 14.8001 59.6001V56.4001H11.6001Z" fill="#ED202D"/>
<path d="M10.0002 30.8002H19.3762L29.2481 21.2003H29.2001C28.3175 21.1977 27.6027 20.4828 27.6001 19.6003C27.6001 15.182 24.0184 11.6003 19.6002 11.6003C15.1819 11.6003 11.6002 15.182 11.6002 19.6003C11.5976 20.4828 10.8828 21.1977 10.0002 21.2003C7.34922 21.2003 5.2002 23.3493 5.2002 26.0002C5.2002 28.6512 7.34922 30.8002 10.0002 30.8002Z" fill="#ED202D"/>
<path d="M48.4 85.2001H42V88.4001H48.4V85.2001Z" fill="#ED202D"/>
<path d="M54.8 48.4001H11.6001V53.2001H54.8V48.4001Z" fill="#ED202D"/>
<path d="M46.8001 62.8001H43.6001V82.0001H46.8001V62.8001Z" fill="#ED202D"/>
<path d="M38.8 88.4001V85.2001C38.807 84.0638 39.416 83.0164 40.4 82.4481V62.3521C39.4159 61.7839 38.807 60.7364 38.8 59.6001V56.4001H27.6V59.6001C27.593 60.7364 26.984 61.7839 26 62.3521V82.4481C26.984 83.0164 27.5929 84.0638 27.6 85.2001V88.4001H38.8Z" fill="#ED202D"/>
<path d="M48.4 56.4001H42V59.6001H48.4V56.4001Z" fill="#ED202D"/>
</svg>
