<svg width="100" height="100" viewBox="0 0 100 100" fill="none" xmlns="http://www.w3.org/2000/svg">
<path d="M95.4 90.8H91.1V18.2C91.1 17.2 90.3 16.4 89.3 16.4H72.3V3.8C72.3 2.8 71.5 2 70.5 2H30.1C29.1 2 28.3 2.8 28.3 3.8V16.5H11.3C10.3 16.5 9.5 17.3 9.5 18.3V90.9H5.2C4.6 90.9 4 91.4 4 92.1V96C4 96.6 4.5 97.2 5.2 97.2H95.4C96 97.2 96.6 96.7 96.6 96V92.1C96.6 91.3 96.1 90.8 95.4 90.8ZM51.5 90.8V72.3H61.4C62 72.3 62.6 72.8 62.6 73.5V90.8H51.5ZM54.6 64.6V57.7C54.6 57.1 55.1 56.5 55.8 56.5H63.1C63.7 56.5 64.3 57 64.3 57.7V64.6C64.3 65.2 63.8 65.8 63.1 65.8H55.8C55.1 65.8 54.6 65.3 54.6 64.6ZM72.8 26.2C72.8 25.6 73.3 25 74 25H81.3C81.9 25 82.5 25.5 82.5 26.2V33.1C82.5 33.7 82 34.3 81.3 34.3H74C73.4 34.3 72.8 33.8 72.8 33.1V26.2ZM72.8 42C72.8 41.4 73.3 40.8 74 40.8H81.3C81.9 40.8 82.5 41.3 82.5 42V48.9C82.5 49.5 82 50.1 81.3 50.1H74C73.4 50.1 72.8 49.6 72.8 48.9V42ZM72.8 57.7C72.8 57.1 73.3 56.5 74 56.5H81.3C81.9 56.5 82.5 57 82.5 57.7V64.6C82.5 65.2 82 65.8 81.3 65.8H74C73.4 65.8 72.8 65.3 72.8 64.6V57.7ZM64.2 42V48.9C64.2 49.5 63.7 50.1 63 50.1H55.7C55.1 50.1 54.5 49.6 54.5 48.9V42C54.5 41.4 55 40.8 55.7 40.8H63C63.7 40.8 64.2 41.3 64.2 42ZM50.3 9.6C56.8 9.6 62.1 14.9 62.1 21.4C62.1 27.9 56.8 33.2 50.3 33.2C43.8 33.2 38.5 27.9 38.5 21.4C38.5 14.9 43.8 9.6 50.3 9.6ZM36.4 42C36.4 41.4 36.9 40.8 37.6 40.8H44.9C45.5 40.8 46.1 41.3 46.1 42V48.9C46.1 49.5 45.6 50.1 44.9 50.1H37.6C37 50.1 36.4 49.6 36.4 48.9V42ZM36.4 57.7C36.4 57.1 36.9 56.5 37.6 56.5H44.9C45.5 56.5 46.1 57 46.1 57.7V64.6C46.1 65.2 45.6 65.8 44.9 65.8H37.6C37 65.8 36.4 65.3 36.4 64.6V57.7ZM18.1 26.2C18.1 25.6 18.6 25 19.3 25H26.6C27.2 25 27.8 25.5 27.8 26.2V33.1C27.8 33.7 27.3 34.3 26.6 34.3H19.3C18.7 34.3 18.1 33.8 18.1 33.1V26.2ZM18.1 42C18.1 41.4 18.6 40.8 19.3 40.8H26.6C27.2 40.8 27.8 41.3 27.8 42V48.9C27.8 49.5 27.3 50.1 26.6 50.1H19.3C18.7 50.1 18.1 49.6 18.1 48.9V42ZM18.1 57.7C18.1 57.1 18.6 56.5 19.3 56.5H26.6C27.2 56.5 27.8 57 27.8 57.7V64.6C27.8 65.2 27.3 65.8 26.6 65.8H19.3C18.7 65.8 18.1 65.3 18.1 64.6V57.7ZM38 73.5C38 72.9 38.5 72.3 39.2 72.3H49.1V90.8H38V73.5Z" fill="#ED202D"/>
<path d="M48.4999 28.3H52.0999C52.3999 28.3 52.6999 28 52.6999 27.7V23.8H56.5999C56.8999 23.8 57.1999 23.5 57.1999 23.2V19.6C57.1999 19.3 56.8999 19 56.5999 19H52.6999V15.1C52.6999 14.8 52.3999 14.5 52.0999 14.5H48.4999C48.1999 14.5 47.8999 14.8 47.8999 15.1V19H43.9999C43.6999 19 43.3999 19.3 43.3999 19.6V23.2C43.3999 23.5 43.6999 23.8 43.9999 23.8H47.8999V27.7C47.8999 28 48.1999 28.3 48.4999 28.3Z" fill="#ED202D"/>
</svg>
