<svg width="100" height="100" viewBox="0 0 100 100" fill="none" xmlns="http://www.w3.org/2000/svg">
<path d="M61.1905 5.78911L68.7039 14.5593L54.0178 29.2454L45.876 21.1036L61.1905 5.78911ZM68.6203 56.4286H66.0714C62.6626 56.4247 59.3946 55.0689 56.9842 52.6586C54.5739 50.2482 53.218 46.9802 53.2142 43.5714C53.2141 43.1452 53.0447 42.7365 52.7433 42.4352L49.0581 38.75L64.4642 23.3439L83.0846 41.9643L68.6203 56.4286ZM37.4256 64.2152L29.8801 57.928L36.381 51.4271C38.2613 55.424 38.6324 59.9661 37.4256 64.2152V64.2152ZM33.8112 49.452C32.8703 47.6348 32.3813 45.6177 32.3856 43.5714C32.3856 43.1452 32.2162 42.7365 31.9147 42.4352L28.2296 38.75L43.6035 23.3761L51.7453 31.5179L45.6494 37.6137L33.8112 49.452ZM16.6019 64.2152L9.04832 57.9248L15.5492 51.4239C17.4337 55.4205 17.8077 59.9643 16.6019 64.2152V64.2152ZM5.57368 63.8825C5.40303 63.7392 5.26405 63.562 5.16555 63.3621C5.06705 63.1623 5.01119 62.9441 5.00151 62.7215C4.99184 62.4988 5.02857 62.2766 5.10936 62.069C5.19015 61.8613 5.31325 61.6727 5.47082 61.5152L6.77422 60.2102L44.2142 91.4129C44.5033 91.654 44.8679 91.7859 45.2444 91.7857H48.3928V88.5714H45.8294L19.2328 66.4073C20.2395 63.5834 20.6433 60.5799 20.4183 57.5903C20.1932 54.6008 19.3443 51.6916 17.9262 49.0502L25.9619 41.0145L29.1906 44.2432C29.3064 46.9081 30.0942 49.5004 31.4808 51.7791L26.3685 56.8914L24.0221 59.2411C23.5492 59.7135 23.1796 60.2791 22.937 60.902C22.6943 61.5248 22.5839 62.1914 22.6126 62.8592C22.6413 63.5271 22.8086 64.1816 23.1038 64.7814C23.399 65.3811 23.8157 65.9129 24.3274 66.343L58.4439 95H42.6199L5.57368 63.8825ZM63.4421 95L26.3958 63.8825C26.2249 63.7394 26.0858 63.562 25.9876 63.3619C25.8893 63.1618 25.834 62.9433 25.8253 62.7205C25.8141 62.4979 25.8502 62.2754 25.9311 62.0677C26.0119 61.86 26.1358 61.6717 26.2946 61.5152L27.5996 60.2102L65.046 91.4129C65.3339 91.6529 65.6966 91.7848 66.0714 91.7857H91.7856V93.3929C91.7856 93.8191 91.6163 94.2279 91.3149 94.5293C91.0135 94.8307 90.6047 95 90.1785 95H63.4421ZM73.4883 75.5905L88.8173 81.9821C89.6965 82.3466 90.4478 82.9636 90.9762 83.7552C91.5046 84.5468 91.7863 85.4774 91.7856 86.4291V88.5714H66.6531L40.0549 66.4057C41.0615 63.5835 41.4653 60.5816 41.2406 57.5937C41.0158 54.6058 40.1674 51.6981 38.7499 49.0582L46.7856 41.0225L50.0144 44.2512C50.1944 48.3906 51.9642 52.301 54.9553 55.1681C57.9463 58.0352 61.9281 59.6381 66.0714 59.6429H68.834L69.6376 62.8571H59.6428V66.0714H70.4412L71.2448 69.2857H61.2499V72.5H72.0483L72.5481 74.4977C72.6089 74.7405 72.7256 74.9657 72.8888 75.1554C73.0521 75.3452 73.2573 75.4942 73.4883 75.5905V75.5905ZM94.9999 30.0489L85.3571 39.6918L66.7367 21.0714L82.8081 5H94.9999V30.0489Z" fill="#ED202D"/>
</svg>
