<svg width="100" height="100" viewBox="0 0 100 100" fill="none" xmlns="http://www.w3.org/2000/svg">
<path fill-rule="evenodd" clip-rule="evenodd" d="M34.3603 36.601V54.509H13.0793V36.601H34.3603V36.601ZM66.1889 54.509V36.601H87.7371V54.509H66.1889V54.509ZM96.8164 31.3253H4V36.5992H7.80733V87.7262H4V93H41.5907V70.6405H59.2258V93H96.8164V87.7262H93.0091V36.601H96.8164V31.3253ZM31.2416 28.3979H36.5155V20.3359H64.2991V28.3998H69.573V26.135H74.8468V20.3359H78.0749V15.062H74.8468V9.26472H69.573V7H64.2991V15.062H36.5155V7H31.2416V9.26472H25.9678V15.062H22.7396V20.3359H25.9678V26.1332H31.2416V28.3979V28.3979ZM39.6341 54.509V36.601H60.915V54.509H39.6341V54.509Z" fill="#ED202D"/>
</svg>
