<svg width="100" height="100" viewBox="0 0 100 100" fill="none" xmlns="http://www.w3.org/2000/svg">
<path d="M4.00493 37.9657C3.83193 43.423 8.23732 47.9957 13.7038 47.9854C19.1704 47.9957 23.5758 43.423 23.4028 37.9657H4.00493Z" fill="#ED202D"/>
<path d="M76.5908 37.9657C76.4184 43.4248 80.827 47.9978 86.2951 47.9854C91.7618 47.9957 96.1676 43.4232 95.9954 37.9657H76.5908Z" fill="#ED202D"/>
<path d="M53.9297 43.5236C55.6916 46.2793 58.74 47.9853 62.0955 47.9853C67.562 47.9955 71.9674 43.4228 71.7944 37.9655H59.7223C57.5957 40.2985 55.501 42.1999 53.9297 43.5236Z" fill="#ED202D"/>
<path d="M28.1978 37.9657C28.0255 43.4232 32.4313 47.9957 37.8981 47.9854C41.2352 47.9854 44.2702 46.2982 46.0371 43.5702C44.4171 42.2468 42.2639 40.3373 40.0915 37.9657H28.1978Z" fill="#ED202D"/>
<path d="M59.643 52.5736C55.6854 51.9011 52.2002 49.6226 49.9981 46.2775C47.3498 50.2988 42.8461 52.7816 37.9003 52.7816C32.8509 52.7816 28.3968 50.1879 25.8 46.263C23.2035 50.1879 18.7504 52.7816 13.7029 52.7816C12.563 52.7816 11.4281 52.6464 10.3257 52.383V96H59.643V52.5736ZM32.7784 92.5119C30.8521 92.5119 29.2907 90.9502 29.2907 89.0237C29.2907 87.0972 30.8521 85.5356 32.7784 85.5356C34.7047 85.5356 36.2661 87.0972 36.2661 89.0237C36.2661 90.9502 34.7047 92.5119 32.7784 92.5119ZM43.8957 92.5119C41.9694 92.5119 40.4079 90.9502 40.4079 89.0237C40.4079 87.0972 41.9694 85.5356 43.8957 85.5356C45.822 85.5356 47.3834 87.0972 47.3834 89.0237C47.3834 90.9502 45.822 92.5119 43.8957 92.5119ZM49.7457 81.0868C49.4569 82.1239 48.5122 82.8415 47.4357 82.8415C47.4351 82.8415 47.4349 82.8415 47.4343 82.8415L29.2899 82.831C28.1625 82.8304 27.1876 82.0443 26.9482 80.9425L22.6684 61.1605L15.8309 61.1694L15.8248 56.3732L24.6083 56.3618C24.6093 56.3618 24.6105 56.3618 24.6114 56.3618C25.7443 56.3618 26.7227 57.1546 26.9574 58.2633L27.7457 61.9875L51.9148 61.948C53.4468 61.903 54.6844 63.5173 54.2288 64.9895L49.7457 81.0868Z" fill="#ED202D"/>
<path d="M31.2234 78.0359L45.6141 78.0442L48.7596 66.7492L28.7764 66.7816L31.2234 78.0359Z" fill="#ED202D"/>
<path d="M86.294 52.7816H86.29C81.2422 52.7816 76.7889 50.1881 74.192 46.2629C72.0061 49.5675 68.5036 51.928 64.4385 52.5919V95.9999H89.6724V52.3823C88.5698 52.6461 87.4343 52.7816 86.294 52.7816ZM76.21 74.7328H71.4142V66.8558H76.21V74.7328Z" fill="#ED202D"/>
<path d="M5.28662 33.1703H36.2313C32.7846 28.2119 31.0421 23.2762 31.0421 18.4497C31.0421 18.3719 31.0425 18.294 31.0435 18.2162H11.8886L5.28662 33.1703Z" fill="#ED202D"/>
<path d="M63.5977 33.1695H94.7127L88.1107 18.2152H68.9559C68.9569 18.2931 68.9572 18.3709 68.9572 18.4487C68.9571 23.1789 67.1575 28.1146 63.5977 33.1695Z" fill="#ED202D"/>
<path d="M49.9996 13.7667C47.7088 13.7667 45.8452 15.662 45.8452 17.9916C45.8452 20.3211 47.7088 22.2164 49.9996 22.2164C52.2903 22.2164 54.1539 20.3211 54.1539 17.9916C54.1539 15.662 52.2903 13.7667 49.9996 13.7667Z" fill="#ED202D"/>
<path d="M49.9998 4C42.191 4 35.8379 10.4817 35.8379 18.4487C35.8379 28.5866 46.1671 37.5951 49.9711 40.5684C53.7704 37.4917 64.1617 28.1852 64.1617 18.4487C64.1617 10.4817 57.8086 4 49.9998 4ZM49.9998 27.0126C45.0648 27.0126 41.0498 22.9658 41.0498 17.9917C41.0498 13.0174 45.0648 8.97056 49.9998 8.97056C54.9348 8.97056 58.9497 13.0174 58.9497 17.9917C58.9497 22.9658 54.9348 27.0126 49.9998 27.0126Z" fill="#ED202D"/>
</svg>
